<svg width="271" height="271" viewBox="0 0 271 271" fill="none" xmlns="http://www.w3.org/2000/svg">
<path d="M269.59 241.63C269.59 257.772 256.59 270.848 240.542 270.848H29.0478C13.008 270.848 0 257.772 0 241.63V29.2002C0 13.0757 13.008 0 29.0478 0H240.538C256.586 0 269.586 13.0757 269.586 29.2002V241.63H269.59Z" fill="#292F36"/>
<path d="M67.4814 118.944L134.63 40.5569L202.118 118.19C201.309 129.089 194.098 137.638 185.261 137.681L170.271 137.757L170.652 208.488C170.703 220.387 161.146 230.083 149.311 230.155L121.474 230.299C109.626 230.35 99.9676 220.746 99.9125 208.852L99.5399 138.138L84.5587 138.223C75.7258 138.252 68.4342 129.818 67.4941 118.944" fill="#E9EDDE"/>
</svg>
